<svg width="26" height="20" viewBox="0 0 26 20" fill="none" xmlns="http://www.w3.org/2000/svg">
<mask id="path-1-inside-1_96_612" fill="white">
<path d="M12.5002 20L10.8327 18.6539C8.89691 17.0836 7.29649 15.7289 6.03149 14.5899C4.76649 13.451 3.76024 12.4285 3.01274 11.5225C2.26524 10.6165 1.74295 9.78383 1.44587 9.02452C1.14879 8.26521 1.00024 7.48865 1.00024 6.69482C1.00024 5.07266 1.60399 3.71798 2.81149 2.63079C4.01899 1.5436 5.52358 1 7.32524 1C8.32191 1 9.27066 1.18983 10.1715 1.56948C11.0723 1.94914 11.8486 2.48411 12.5002 3.17439C13.1519 2.48411 13.9282 1.94914 14.829 1.56948C15.7298 1.18983 16.6786 1 17.6752 1C19.4769 1 20.9815 1.5436 22.189 2.63079C23.3965 3.71798 24.0002 5.07266 24.0002 6.69482C24.0002 7.48865 23.8517 8.26521 23.5546 9.02452C23.2575 9.78383 22.7352 10.6165 21.9877 11.5225C21.2402 12.4285 20.234 13.451 18.969 14.5899C17.704 15.7289 16.1036 17.0836 14.1677 18.6539L12.5002 20ZM12.5002 17.2044C14.3402 15.7203 15.8544 14.4475 17.0427 13.3862C18.2311 12.3249 19.1702 11.4017 19.8602 10.6165C20.5502 9.83129 21.0294 9.13238 21.2977 8.51975C21.5661 7.90713 21.7002 7.29882 21.7002 6.69482C21.7002 5.6594 21.3169 4.79655 20.5502 4.10627C19.7836 3.41599 18.8252 3.07084 17.6752 3.07084C16.7744 3.07084 15.9407 3.2995 15.174 3.75681C14.4073 4.21412 13.8802 4.79655 13.5927 5.50409H11.4077C11.1202 4.79655 10.5932 4.21412 9.82649 3.75681C9.05983 3.2995 8.22608 3.07084 7.32524 3.07084C6.17524 3.07084 5.21691 3.41599 4.45024 4.10627C3.68358 4.79655 3.30024 5.6594 3.30024 6.69482C3.30024 7.29882 3.43441 7.90713 3.70274 8.51975C3.97108 9.13238 4.45024 9.83129 5.14024 10.6165C5.83024 11.4017 6.76941 12.3249 7.95774 13.3862C9.14608 14.4475 10.6602 15.7203 12.5002 17.2044Z"/>
</mask>
<path d="M12.5002 20L10.8327 18.6539C8.89691 17.0836 7.29649 15.7289 6.03149 14.5899C4.76649 13.451 3.76024 12.4285 3.01274 11.5225C2.26524 10.6165 1.74295 9.78383 1.44587 9.02452C1.14879 8.26521 1.00024 7.48865 1.00024 6.69482C1.00024 5.07266 1.60399 3.71798 2.81149 2.63079C4.01899 1.5436 5.52358 1 7.32524 1C8.32191 1 9.27066 1.18983 10.1715 1.56948C11.0723 1.94914 11.8486 2.48411 12.5002 3.17439C13.1519 2.48411 13.9282 1.94914 14.829 1.56948C15.7298 1.18983 16.6786 1 17.6752 1C19.4769 1 20.9815 1.5436 22.189 2.63079C23.3965 3.71798 24.0002 5.07266 24.0002 6.69482C24.0002 7.48865 23.8517 8.26521 23.5546 9.02452C23.2575 9.78383 22.7352 10.6165 21.9877 11.5225C21.2402 12.4285 20.234 13.451 18.969 14.5899C17.704 15.7289 16.1036 17.0836 14.1677 18.6539L12.5002 20ZM12.5002 17.2044C14.3402 15.7203 15.8544 14.4475 17.0427 13.3862C18.2311 12.3249 19.1702 11.4017 19.8602 10.6165C20.5502 9.83129 21.0294 9.13238 21.2977 8.51975C21.5661 7.90713 21.7002 7.29882 21.7002 6.69482C21.7002 5.6594 21.3169 4.79655 20.5502 4.10627C19.7836 3.41599 18.8252 3.07084 17.6752 3.07084C16.7744 3.07084 15.9407 3.2995 15.174 3.75681C14.4073 4.21412 13.8802 4.79655 13.5927 5.50409H11.4077C11.1202 4.79655 10.5932 4.21412 9.82649 3.75681C9.05983 3.2995 8.22608 3.07084 7.32524 3.07084C6.17524 3.07084 5.21691 3.41599 4.45024 4.10627C3.68358 4.79655 3.30024 5.6594 3.30024 6.69482C3.30024 7.29882 3.43441 7.90713 3.70274 8.51975C3.97108 9.13238 4.45024 9.83129 5.14024 10.6165C5.83024 11.4017 6.76941 12.3249 7.95774 13.3862C9.14608 14.4475 10.6602 15.7203 12.5002 17.2044Z" fill="black"/>
<path d="M12.5002 20L10.6159 22.3344L12.5002 23.8555L14.3846 22.3344L12.5002 20ZM10.8327 18.6539L8.94276 20.9838L8.94839 20.9883L10.8327 18.6539ZM12.5002 3.17439L10.3188 5.23381L12.5002 7.54454L14.6817 5.23381L12.5002 3.17439ZM14.1677 18.6539L16.0521 20.9883L16.0577 20.9837L14.1677 18.6539ZM12.5002 17.2044L10.6168 19.5395L12.5002 21.0586L14.3837 19.5395L12.5002 17.2044ZM13.5927 5.50409V8.50409H15.6119L16.3721 6.63343L13.5927 5.50409ZM11.4077 5.50409L8.62843 6.63343L9.38855 8.50409H11.4077V5.50409ZM12.5002 20L14.3846 17.6656L12.7171 16.3196L10.8327 18.6539L8.94839 20.9883L10.6159 22.3344L12.5002 20ZM10.8327 18.6539L12.7227 16.3242C10.8104 14.7728 9.25252 13.4532 8.03884 12.3604L6.03149 14.5899L4.02415 16.8194C5.34047 18.0046 6.98345 19.3943 8.94276 20.9837L10.8327 18.6539ZM6.03149 14.5899L8.03884 12.3604C6.83961 11.2807 5.94859 10.3669 5.3268 9.61325L3.01274 11.5225L0.698693 13.4317C1.5719 14.4901 2.69338 15.6212 4.02415 16.8194L6.03149 14.5899ZM3.01274 11.5225L5.3268 9.61325C4.70036 8.85399 4.38231 8.29608 4.23964 7.93145L1.44587 9.02452L-1.34791 10.1176C-0.896407 11.2716 -0.169873 12.379 0.698693 13.4317L3.01274 11.5225ZM1.44587 9.02452L4.23964 7.93145C4.07507 7.51082 4.00024 7.10441 4.00024 6.69482H1.00024H-1.99976C-1.99976 7.87288 -1.7775 9.01961 -1.34791 10.1176L1.44587 9.02452ZM1.00024 6.69482H4.00024C4.00024 5.92451 4.24202 5.37961 4.81884 4.86027L2.81149 2.63079L0.804148 0.401315C-1.03403 2.05635 -1.99976 4.22082 -1.99976 6.69482H1.00024ZM2.81149 2.63079L4.81884 4.86027C5.41397 4.32443 6.17786 4 7.32524 4V1V-2C4.8693 -2 2.62402 -1.23724 0.804148 0.401315L2.81149 2.63079ZM7.32524 1V4C7.92974 4 8.48165 4.11284 9.00639 4.334L10.1715 1.56948L11.3366 -1.19503C10.0597 -1.73319 8.71408 -2 7.32524 -2V1ZM10.1715 1.56948L9.00639 4.334C9.53487 4.55672 9.96186 4.85574 10.3188 5.23381L12.5002 3.17439L14.6817 1.11496C13.7353 0.112475 12.6098 -0.658448 11.3366 -1.19503L10.1715 1.56948ZM12.5002 3.17439L14.6817 5.23381C15.0386 4.85574 15.4656 4.55672 15.9941 4.334L14.829 1.56948L13.6639 -1.19503C12.3907 -0.658448 11.2652 0.112475 10.3188 1.11496L12.5002 3.17439ZM14.829 1.56948L15.9941 4.334C16.5188 4.11284 17.0707 4 17.6752 4V1V-2C16.2864 -2 14.9408 -1.73319 13.6639 -1.19503L14.829 1.56948ZM17.6752 1V4C18.8226 4 19.5865 4.32443 20.1816 4.86027L22.189 2.63079L24.1963 0.401315C22.3765 -1.23724 20.1312 -2 17.6752 -2V1ZM22.189 2.63079L20.1816 4.86027C20.7585 5.37961 21.0002 5.92451 21.0002 6.69482H24.0002H27.0002C27.0002 4.22082 26.0345 2.05635 24.1963 0.401315L22.189 2.63079ZM24.0002 6.69482H21.0002C21.0002 7.10441 20.9254 7.51082 20.7608 7.93145L23.5546 9.02452L26.3484 10.1176C26.778 9.01961 27.0002 7.87288 27.0002 6.69482H24.0002ZM23.5546 9.02452L20.7608 7.93145C20.6182 8.29608 20.3001 8.85399 19.6737 9.61325L21.9877 11.5225L24.3018 13.4317C25.1704 12.379 25.8969 11.2716 26.3484 10.1176L23.5546 9.02452ZM21.9877 11.5225L19.6737 9.61325C19.0519 10.3669 18.1609 11.2807 16.9616 12.3604L18.969 14.5899L20.9763 16.8194C22.3071 15.6212 23.4286 14.4901 24.3018 13.4317L21.9877 11.5225ZM18.969 14.5899L16.9616 12.3604C15.748 13.4532 14.1901 14.7728 12.2778 16.3242L14.1677 18.6539L16.0577 20.9837C18.017 19.3943 19.66 18.0046 20.9763 16.8194L18.969 14.5899ZM14.1677 18.6539L12.2834 16.3196L10.6159 17.6656L12.5002 20L14.3846 22.3344L16.0521 20.9883L14.1677 18.6539ZM12.5002 17.2044L14.3837 19.5395C16.2461 18.0373 17.8021 16.7303 19.0411 15.6238L17.0427 13.3862L15.0444 11.1487C13.9067 12.1648 12.4344 13.4032 10.6168 14.8693L12.5002 17.2044ZM17.0427 13.3862L19.0411 15.6238C20.2781 14.519 21.3142 13.5067 22.1138 12.5968L19.8602 10.6165L17.6067 8.63617C17.0263 9.29667 16.184 10.1309 15.0444 11.1487L17.0427 13.3862ZM19.8602 10.6165L22.1138 12.5968C22.9065 11.6947 23.6042 10.7313 24.0457 9.72338L21.2977 8.51975L18.5498 7.31613C18.4546 7.53344 18.194 7.96786 17.6067 8.63617L19.8602 10.6165ZM21.2977 8.51975L24.0457 9.72338C24.4623 8.77219 24.7002 7.75559 24.7002 6.69482H21.7002H18.7002C18.7002 6.84204 18.6698 7.04207 18.5498 7.31613L21.2977 8.51975ZM21.7002 6.69482H24.7002C24.7002 4.81273 23.9588 3.13838 22.5576 1.87679L20.5502 4.10627L18.5429 6.33574C18.6425 6.42539 18.6658 6.47712 18.6711 6.48912C18.6766 6.50138 18.7002 6.55581 18.7002 6.69482H21.7002ZM20.5502 4.10627L22.5576 1.87679C21.1755 0.632397 19.4749 0.0708447 17.6752 0.0708447V3.07084V6.07084C18.1755 6.07084 18.3917 6.19957 18.5429 6.33574L20.5502 4.10627ZM17.6752 3.07084V0.0708447C16.2385 0.0708447 14.873 0.443198 13.6372 1.18036L15.174 3.75681L16.7108 6.33327C17.0083 6.1558 17.3103 6.07084 17.6752 6.07084V3.07084ZM15.174 3.75681L13.6372 1.18036C12.4082 1.91343 11.3865 2.96448 10.8134 4.37475L13.5927 5.50409L16.3721 6.63343C16.374 6.62861 16.4065 6.51481 16.7108 6.33327L15.174 3.75681ZM13.5927 5.50409V2.50409H11.4077V5.50409V8.50409H13.5927V5.50409ZM11.4077 5.50409L14.1871 4.37475C13.614 2.96448 12.5923 1.91343 11.3633 1.18036L9.82649 3.75681L8.28966 6.33327C8.59401 6.51481 8.62647 6.62861 8.62843 6.63343L11.4077 5.50409ZM9.82649 3.75681L11.3633 1.18036C10.1275 0.443198 8.76198 0.0708447 7.32524 0.0708447V3.07084V6.07084C7.69017 6.07084 7.99214 6.1558 8.28966 6.33327L9.82649 3.75681ZM7.32524 3.07084V0.0708447C5.52554 0.0708447 3.82499 0.632397 2.4429 1.87679L4.45024 4.10627L6.45759 6.33574C6.60883 6.19957 6.82495 6.07084 7.32524 6.07084V3.07084ZM4.45024 4.10627L2.4429 1.87679C1.04171 3.13838 0.300244 4.81273 0.300244 6.69482H3.30024H6.30024C6.30024 6.55581 6.32391 6.50138 6.32936 6.48912C6.33469 6.47712 6.35803 6.42539 6.45759 6.33574L4.45024 4.10627ZM3.30024 6.69482H0.300244C0.300244 7.75559 0.538155 8.77219 0.954783 9.72338L3.70274 8.51975L6.45071 7.31613C6.33067 7.04207 6.30024 6.84204 6.30024 6.69482H3.30024ZM3.70274 8.51975L0.954783 9.72338C1.39626 10.7313 2.09401 11.6947 2.88672 12.5968L5.14024 10.6165L7.39377 8.63617C6.80648 7.96786 6.54589 7.53344 6.45071 7.31613L3.70274 8.51975ZM5.14024 10.6165L2.88672 12.5968C3.6863 13.5067 4.72234 14.519 5.95939 15.6238L7.95774 13.3862L9.9561 11.1487C8.81648 10.1309 7.97419 9.29667 7.39377 8.63617L5.14024 10.6165ZM7.95774 13.3862L5.95939 15.6238C7.19839 16.7303 8.75442 18.0373 10.6168 19.5395L12.5002 17.2044L14.3837 14.8693C12.5661 13.4032 11.0938 12.1648 9.9561 11.1487L7.95774 13.3862Z" fill="black" mask="url(#path-1-inside-1_96_612)"/>
<ellipse cx="9.47485" cy="9.80449" rx="8.66026" ry="5" transform="rotate(48.6515 9.47485 9.80449)" fill="black"/>
<ellipse cx="15.0402" cy="10" rx="8.56055" ry="5.61061" transform="rotate(135.551 15.0402 10)" fill="black"/>
</svg>
