<svg width="82" height="76" viewBox="0 0 82 76" fill="none" xmlns="http://www.w3.org/2000/svg">
<path d="M30.75 55.1L59.45 38L30.75 20.9V55.1ZM41 76C35.3283 76 29.9983 75.0025 25.01 73.0075C20.0217 71.0125 15.6825 68.305 11.9925 64.885C8.3025 61.465 5.38125 57.4433 3.22875 52.82C1.07625 48.1967 0 43.2567 0 38C0 32.7433 1.07625 27.8033 3.22875 23.18C5.38125 18.5567 8.3025 14.535 11.9925 11.115C15.6825 7.695 20.0217 4.9875 25.01 2.9925C29.9983 0.9975 35.3283 0 41 0C46.6717 0 52.0017 0.9975 56.99 2.9925C61.9783 4.9875 66.3175 7.695 70.0075 11.115C73.6975 14.535 76.6188 18.5567 78.7712 23.18C80.9238 27.8033 82 32.7433 82 38C82 43.2567 80.9238 48.1967 78.7712 52.82C76.6188 57.4433 73.6975 61.465 70.0075 64.885C66.3175 68.305 61.9783 71.0125 56.99 73.0075C52.0017 75.0025 46.6717 76 41 76ZM41 68.4C50.1567 68.4 57.9125 65.455 64.2675 59.565C70.6225 53.675 73.8 46.4867 73.8 38C73.8 29.5133 70.6225 22.325 64.2675 16.435C57.9125 10.545 50.1567 7.6 41 7.6C31.8433 7.6 24.0875 10.545 17.7325 16.435C11.3775 22.325 8.2 29.5133 8.2 38C8.2 46.4867 11.3775 53.675 17.7325 59.565C24.0875 65.455 31.8433 68.4 41 68.4Z" fill="#007C98"/>
</svg>
