<svg width="263" height="115" viewBox="0 0 263 115" fill="none" xmlns="http://www.w3.org/2000/svg">
<path d="M84.5714 114.23H26.4286V39.9803L63.4286 0L70.0357 7.13934C70.6524 7.80568 71.1589 8.71 71.5554 9.8523C71.9518 10.9946 72.15 12.0893 72.15 13.1364V15.1354L66.3357 39.9803H100.429C103.248 39.9803 105.714 41.1226 107.829 43.4072C109.943 45.6918 111 48.3572 111 51.4033V62.8262C111 63.4926 110.912 64.2065 110.736 64.968C110.56 65.7296 110.383 66.4435 110.207 67.1098L94.35 107.376C93.5571 109.28 92.2357 110.898 90.3857 112.23C88.5357 113.563 86.5976 114.23 84.5714 114.23ZM37 102.807H84.5714L100.429 62.8262V51.4033H52.8571L59.9929 19.9902L37 44.8351V102.807ZM26.4286 39.9803V51.4033H10.5714V102.807H26.4286V114.23H0V39.9803H26.4286Z" fill="#007C98"/>
<path d="M178.429 0H236.571V74.2492L199.571 114.23L192.964 107.09C192.348 106.424 191.841 105.52 191.445 104.377C191.048 103.235 190.85 102.14 190.85 101.093V99.0941L196.664 74.2492H162.571C159.752 74.2492 157.286 73.1069 155.171 70.8223C153.057 68.5377 152 65.8724 152 62.8262V51.4033C152 50.7369 152.088 50.023 152.264 49.2615C152.44 48.4999 152.617 47.786 152.793 47.1197L168.65 6.85377C169.443 4.94995 170.764 3.33169 172.614 1.99902C174.464 0.666339 176.402 0 178.429 0ZM226 11.423H178.429L162.571 51.4033V62.8262H210.143L203.007 94.2393L226 69.3944V11.423ZM236.571 74.2492V62.8262H252.429V11.423H236.571V0H263V74.2492H236.571Z" fill="#007C98"/>
</svg>
