<svg width="23" height="19" viewBox="0 0 23 19" fill="none" xmlns="http://www.w3.org/2000/svg">
<path d="M11.5 19L9.8325 17.6539C7.89667 16.0836 6.29625 14.7289 5.03125 13.5899C3.76625 12.451 2.76 11.4285 2.0125 10.5225C1.265 9.61648 0.742708 8.78383 0.445625 8.02452C0.148542 7.26521 0 6.48865 0 5.69482C0 4.07266 0.60375 2.71798 1.81125 1.63079C3.01875 0.543597 4.52333 0 6.325 0C7.32167 0 8.27042 0.189827 9.17125 0.569482C10.0721 0.949137 10.8483 1.48411 11.5 2.17439C12.1517 1.48411 12.9279 0.949137 13.8288 0.569482C14.7296 0.189827 15.6783 0 16.675 0C18.4767 0 19.9813 0.543597 21.1888 1.63079C22.3962 2.71798 23 4.07266 23 5.69482C23 6.48865 22.8515 7.26521 22.5544 8.02452C22.2573 8.78383 21.735 9.61648 20.9875 10.5225C20.24 11.4285 19.2338 12.451 17.9688 13.5899C16.7038 14.7289 15.1033 16.0836 13.1675 17.6539L11.5 19ZM11.5 16.2044C13.34 14.7203 14.8542 13.4475 16.0425 12.3862C17.2308 11.3249 18.17 10.4017 18.86 9.61648C19.55 8.83129 20.0292 8.13238 20.2975 7.51975C20.5658 6.90713 20.7 6.29882 20.7 5.69482C20.7 4.6594 20.3167 3.79655 19.55 3.10627C18.7833 2.41599 17.825 2.07084 16.675 2.07084C15.7742 2.07084 14.9404 2.2995 14.1737 2.75681C13.4071 3.21412 12.88 3.79655 12.5925 4.50409H10.4075C10.12 3.79655 9.59292 3.21412 8.82625 2.75681C8.05958 2.2995 7.22583 2.07084 6.325 2.07084C5.175 2.07084 4.21667 2.41599 3.45 3.10627C2.68333 3.79655 2.3 4.6594 2.3 5.69482C2.3 6.29882 2.43417 6.90713 2.7025 7.51975C2.97083 8.13238 3.45 8.83129 4.14 9.61648C4.83 10.4017 5.76917 11.3249 6.9575 12.3862C8.14583 13.4475 9.66 14.7203 11.5 16.2044Z" fill="black"/>
</svg>
