<svg width="31" height="28" viewBox="0 0 31 28" fill="none" xmlns="http://www.w3.org/2000/svg">
<path d="M15.5 28C13.6808 28 11.9767 27.6616 10.3879 26.9847C8.7991 26.3079 7.41647 25.3936 6.24002 24.2417C5.06358 23.0899 4.12969 21.7362 3.43838 20.1807C2.74707 18.6251 2.40141 16.9567 2.40141 15.1756C2.40141 13.3944 2.74707 11.726 3.43838 10.1705C4.12969 8.61493 5.06358 7.26124 6.24002 6.10941C7.41647 4.95759 8.7991 4.04326 10.3879 3.36641C11.9767 2.68957 13.6808 2.35115 15.5 2.35115C17.3192 2.35115 19.0233 2.68957 20.6121 3.36641C22.2009 4.04326 23.5835 4.95759 24.76 6.10941C25.9364 7.26124 26.8703 8.61493 27.5616 10.1705C28.2529 11.726 28.5986 13.3944 28.5986 15.1756C28.5986 16.9567 28.2529 18.6251 27.5616 20.1807C26.8703 21.7362 25.9364 23.0899 24.76 24.2417C23.5835 25.3936 22.2009 26.3079 20.6121 26.9847C19.0233 27.6616 17.3192 28 15.5 28ZM19.5751 21.1603L21.6127 19.1654L16.9554 14.6056V8.05089H14.0446V15.7455L19.5751 21.1603ZM6.18545 0L8.22301 1.99491L2.03756 8.05089L0 6.05598L6.18545 0ZM24.8146 0L31 6.05598L28.9624 8.05089L22.777 1.99491L24.8146 0ZM15.5 25.1501C18.338 25.1501 20.7455 24.1824 22.7224 22.2468C24.6993 20.3113 25.6878 17.9542 25.6878 15.1756C25.6878 12.3969 24.6993 10.0399 22.7224 8.10433C20.7455 6.16879 18.338 5.20102 15.5 5.20102C12.662 5.20102 10.2545 6.16879 8.27758 8.10433C6.30066 10.0399 5.31221 12.3969 5.31221 15.1756C5.31221 17.9542 6.30066 20.3113 8.27758 22.2468C10.2545 24.1824 12.662 25.1501 15.5 25.1501Z" fill="black"/>
</svg>
